<?xml version="1.0" encoding="UTF-8"?>
<svg width="9px" height="13px" viewBox="0 0 9 13" version="1.1" xmlns="http://www.w3.org/2000/svg" xmlns:xlink="http://www.w3.org/1999/xlink">
    <!-- Generator: Sketch 55.1 (78136) - https://sketchapp.com -->
    <title>System Icons/Action/Polling Copy</title>
    <desc>Created with Sketch.</desc>
    <defs>
        <polygon id="path-1" points="0 -0.0001875 8.75 -0.0001875 8.75 12.005375 0 12.005375"></polygon>
    </defs>
    <g id="Screen" stroke="none" stroke-width="1" fill="none" fill-rule="evenodd">
        <g id="Home" transform="translate(-49.000000, -771.000000)">
            <g id="Popular-Aset" transform="translate(28.000000, 550.000000)">
                <g id="Card-1" transform="translate(0.000000, 39.000000)">
                    <g id="Title" transform="translate(18.000000, 154.000000)">
                        <g id="Group-5" transform="translate(0.000000, 27.000000)">
                            <g id="Location">
                                <g id="System-Icons/Action/Polling-Copy">
                                    <g id="Group-3" transform="translate(3.125000, 1.250000)">
                                        <mask id="mask-2" fill="white">
                                            <use xlink:href="#path-1"></use>
                                        </mask>
                                        <g id="Clip-2"></g>
                                        <path d="M4.375,6.3804375 C3.339375,6.3804375 2.5,5.5410625 2.5,4.5054375 C2.5,3.4698125 3.339375,2.6304375 4.375,2.6304375 C5.410625,2.6304375 6.25,3.4698125 6.25,4.5054375 C6.25,5.5410625 5.410625,6.3804375 4.375,6.3804375 M4.374375,-0.0001875 C1.92,-0.0001875 0,1.8541875 0,4.2398125 C0,7.2629375 2.77875,10.5860625 3.906875,11.8023125 C4.033125,11.9385625 4.20375,12.0060625 4.37375,12.0054418 C4.54375,12.0048125 4.71375,11.9360625 4.83875,11.7991875 C5.965625,10.5723125 8.75,7.2629375 8.75,4.1523125 C8.75,1.9741875 6.975,-0.0001875 4.374375,-0.0001875" id="Fill-1" fill="#0770CD" mask="url(#mask-2)"></path>
                                    </g>
                                </g>
                            </g>
                        </g>
                    </g>
                </g>
            </g>
        </g>
    </g>
</svg>