<?xml version="1.0" encoding="UTF-8"?>
<svg width="21px" height="20px" viewBox="0 0 21 20" version="1.1" xmlns="http://www.w3.org/2000/svg" xmlns:xlink="http://www.w3.org/1999/xlink">
    <!-- Generator: Sketch 55.1 (78136) - https://sketchapp.com -->
    <title>System Icons/Business Feature/Flash Sale</title>
    <desc>Created with Sketch.</desc>
    <g id="Screen" stroke="none" stroke-width="1" fill="none" fill-rule="evenodd">
        <g id="Product-Detail" transform="translate(-16.000000, -723.000000)">
            <g id="Status" transform="translate(14.000000, 687.000000)">
                <g id="Group-10">
                    <g transform="translate(1.000000, 24.000000)">
                        <g id="System-Icons/Business-Feature/Flash-Sale" transform="translate(0.000000, 10.000000)">
                            <rect id="Rectangle-path" x="0" y="0" width="24" height="24"></rect>
                            <g id="Group-5" stroke-width="1" fill-rule="evenodd" transform="translate(1.000000, 2.000000)" fill="#9FA6B0">
                                <path d="M15.5,1 C15.5,1.55 15.05,2 14.5,2 L10.5,2 C9.95,2 9.5,1.55 9.5,1 C9.5,0.45 9.95,0 10.5,0 L14.5,0 C15.05,0 15.5,0.45 15.5,1" id="Fill-1"></path>
                                <path d="M13.5,12 C13.5,12.55 13.05,13 12.5,13 C11.95,13 11.5,12.55 11.5,12 L11.5,7 C11.5,6.45 11.95,6 12.5,6 C13.05,6 13.5,6.45 13.5,7 L13.5,12 Z M12.5,3 C8.677,3 5.448,5.526 4.381,9 L7.25,9 C7.662,9 8,9.338 8,9.75 C8,10.162 7.662,10.5 7.25,10.5 L4.063,10.5 L0.75,10.5 C0.338,10.5 0,10.838 0,11.25 C0,11.662 0.338,12 0.75,12 L1.75,12 L4.025,12 L8.25,12 C8.662,12 9,12.338 9,12.75 C9,13.162 8.662,13.5 8.25,13.5 L4.246,13.5 L1.75,13.5 C1.338,13.5 1,13.838 1,14.25 C1,14.662 1.338,15 1.75,15 L2.75,15 L4.76,15 L9.25,15 C9.662,15 10,15.338 10,15.75 C10,16.162 9.662,16.5 9.25,16.5 L5.637,16.5 L2.75,16.5 C2.338,16.5 2,16.838 2,17.25 C2,17.662 2.338,18 2.75,18 L7.028,18 C8.507,19.246 10.415,20 12.5,20 C17.194,20 21,16.194 21,11.5 C21,6.806 17.194,3 12.5,3 L12.5,3 Z" id="Fill-3"></path>
                            </g>
                        </g>
                    </g>
                </g>
            </g>
        </g>
    </g>
</svg>